<?xml version="1.0" standalone="no"?>
<!DOCTYPE svg PUBLIC "-//W3C//DTD SVG 20010904//EN"
 "http://www.w3.org/TR/2001/REC-SVG-20010904/DTD/svg10.dtd">
<svg version="1.0" xmlns="http://www.w3.org/2000/svg"
 width="818.000000pt" height="818.000000pt" viewBox="0 0 818.000000 818.000000"
 preserveAspectRatio="xMidYMid meet">
<metadata>
Created by potrace 1.11, written by Peter Selinger 2001-2013
</metadata>
<g transform="translate(0.000000,818.000000) scale(0.100000,-0.100000)"
fill="#000000" stroke="none">
<path d="M5218 7764 c-37 -19 -54 -36 -73 -74 l-25 -49 0 -1224 0 -1225 -42
-12 c-24 -6 -83 -22 -133 -35 -49 -13 -115 -31 -145 -40 -30 -10 -82 -24 -115
-32 -33 -8 -82 -22 -110 -30 -27 -9 -84 -24 -125 -34 -145 -35 -206 -51 -265
-69 -33 -10 -87 -24 -120 -30 -33 -7 -67 -16 -76 -21 -9 -5 -54 -17 -100 -28
-90 -22 -230 -60 -319 -86 -30 -10 -82 -24 -115 -32 -33 -8 -82 -22 -110 -30
-27 -9 -84 -24 -125 -34 -145 -35 -206 -51 -265 -69 -33 -10 -86 -24 -118 -30
-33 -7 -73 -18 -90 -25 -18 -7 -49 -15 -69 -19 l-38 -7 0 743 0 743 -28 49
c-24 44 -33 51 -87 68 -81 26 -154 19 -209 -19 -40 -29 -1030 -1218 -1057
-1271 -12 -23 -14 -251 -16 -1417 l-3 -1390 28 -50 c23 -42 104 -113 512 -453
283 -235 509 -415 542 -432 110 -57 242 -29 290 63 l23 42 5 929 5 929 50 13
c28 7 79 20 115 29 36 9 88 24 115 32 28 9 84 24 125 34 157 38 208 51 296 80
84 26 123 37 314 84 36 9 88 24 115 32 28 9 84 24 125 34 136 33 204 51 255
66 28 9 84 24 125 34 157 38 208 51 296 80 50 16 127 37 170 48 113 28 260 67
322 84 l52 15 0 -1574 0 -1575 25 -49 c48 -95 178 -129 285 -75 l49 25 499
832 c275 458 509 852 521 875 l21 42 0 2140 c0 2017 -1 2142 -17 2178 -10 21
-244 297 -521 613 -554 635 -549 630 -657 629 -44 0 -73 -7 -107 -25z"/>
</g>
</svg>
